<svg width="640" height="625" viewBox="0 0 640 625" fill="none" xmlns="http://www.w3.org/2000/svg">
<g filter="url(#filter0_d_26_180)">
<path d="M105.422 200L287.287 515C299.604 536.333 330.396 536.333 342.713 515L524.578 200C536.895 178.667 521.499 152 496.865 152L133.135 152C108.501 152 93.1051 178.667 105.422 200Z" stroke="#FF70C6" stroke-width="24" shape-rendering="crispEdges"/>
</g>
<g filter="url(#filter1_d_26_180)">
<path d="M219.602 133.094C219.916 132.046 221.169 131.559 223.361 131.635C225.518 131.621 227.794 132.179 230.19 133.309C232.64 134.314 234.809 135.789 236.697 137.733C238.584 139.678 239.426 141.977 239.221 144.631C236.603 151.415 234.093 158.877 231.693 167.018C229.383 175.124 227.211 183.588 225.179 192.41C223.201 201.108 221.4 209.994 219.774 219.07C218.149 228.146 216.775 237.072 215.652 245.85C218.391 246.537 221.139 247.118 223.898 247.591C226.746 248.03 229.621 248.407 232.524 248.722C233.951 248.683 234.755 249.297 234.939 250.565C235.122 251.832 234.92 253.301 234.333 254.971C233.745 256.641 232.899 258.308 231.795 259.973C230.745 261.513 229.691 262.643 228.632 263.363L216.509 261.583L213.758 261.261C212.56 272.23 211.816 282.251 211.528 291.322C211.24 300.394 211.396 307.954 211.994 314.004C212.003 314.824 211.253 315.012 209.742 314.569C208.266 314.216 206.561 313.539 204.628 312.539C202.695 311.538 200.861 310.397 199.127 309.113C197.517 307.885 196.601 306.85 196.378 306.01C195.56 300.458 195.211 293.59 195.329 285.409C195.448 277.227 195.94 268.283 196.804 258.575C193.226 258.111 189.699 257.781 186.225 257.586C182.805 257.266 179.393 257.097 175.988 257.081C172.08 267.97 167.676 278.639 162.774 289.09C157.962 299.506 152.803 309.028 147.296 317.654C141.878 326.245 136.188 333.604 130.225 339.73C124.297 345.945 118.335 350.217 112.339 352.545C100.795 357.028 91.6409 357.853 84.8772 355.021C78.1135 352.19 73.5417 345.057 71.1616 333.623C69.2871 325.082 69.5251 316.545 71.8756 308.012C74.1914 299.389 77.8838 291.261 82.9528 283.629C88.1114 275.962 94.2786 269.036 101.454 262.851C108.72 256.631 116.337 251.717 124.307 248.107C125.615 247.496 126.985 246.913 128.416 246.357C129.814 245.712 131.139 245.146 132.391 244.659C138.298 242.366 143.868 240.666 149.103 239.56C154.338 238.454 159.398 237.828 164.284 237.682C166.714 230.147 168.82 222.842 170.604 215.764C172.387 208.687 173.844 202.096 174.975 195.993C176.196 189.855 177.009 184.39 177.415 179.598C177.909 174.772 177.993 170.878 177.667 167.915C176.848 164.216 175.331 161.767 173.115 160.568C170.953 159.245 168.324 159.236 165.226 160.542C159.141 162.905 153.78 166.737 149.145 172.038C144.599 177.305 140.731 183.39 137.542 190.292C134.407 197.071 131.98 204.347 130.261 212.12C128.597 219.769 127.638 227.247 127.386 234.554L127.438 234.688C127.358 235.543 126.876 236.554 125.99 237.722C125.194 238.855 124.185 239.968 122.961 241.06C121.738 242.153 120.435 243.174 119.053 244.123C117.671 245.072 116.37 245.834 115.152 246.41C114.024 246.951 113.049 247.226 112.229 247.236C111.498 247.211 111.156 246.726 111.201 245.782L110.984 246.02L110.852 243.291C110.763 241.472 110.734 239.938 110.765 238.691C110.795 237.443 110.825 236.195 110.856 234.948C110.976 233.665 111.151 232.259 111.38 230.728C111.609 229.197 111.941 227.266 112.375 224.935C113.681 217.425 115.81 209.647 118.761 201.601C121.803 193.52 125.445 185.927 129.689 178.821C134.022 171.68 138.909 165.303 144.35 159.689C149.791 154.075 155.608 149.962 161.803 147.35C165.438 145.836 168.992 145.177 172.466 145.373C175.941 145.568 179.087 146.509 181.904 148.196C184.776 149.758 187.241 151.994 189.297 154.903C191.354 157.812 192.843 161.25 193.766 165.217C194.206 169.268 194.3 174.02 194.049 179.473C193.763 184.836 193.106 190.704 192.079 197.075C191.017 203.358 189.639 210.02 187.946 217.063C186.341 224.071 184.441 231.245 182.246 238.586C185.059 238.935 187.817 239.409 190.521 240.006C193.19 240.515 195.894 241.113 198.632 241.8C199.766 231.989 201.133 221.983 202.734 211.784C204.424 201.55 206.208 191.692 208.087 182.209C209.931 172.636 211.85 163.653 213.842 155.258C215.8 146.774 217.737 139.431 219.654 133.229L219.602 133.094ZM101.707 338.291C107.255 336.137 112.623 332.456 117.81 327.25C123.032 322.132 127.978 316.041 132.649 308.975C137.286 301.82 141.644 293.948 145.724 285.361C149.805 276.774 153.54 267.96 156.929 258.92C150.427 260.209 143.596 262.244 136.437 265.024C134.916 265.614 133.457 266.232 132.059 266.878C130.628 267.434 129.168 268.052 127.682 268.732C121.268 271.841 115.04 275.958 108.998 281.085C103.011 286.087 97.7863 291.463 93.3247 297.212C88.8283 302.871 85.3832 308.585 82.9893 314.355C80.6502 320.001 79.9666 325.003 80.9387 329.363C81.8569 331.993 83.0836 334.091 84.6187 335.658C86.2433 337.19 87.9974 338.259 89.881 338.867C91.7994 339.564 93.7577 339.833 95.756 339.675C97.8438 339.482 99.8273 339.021 101.707 338.291ZM282.786 202.017C280.544 212.156 276.796 221.335 271.543 229.554C266.379 237.738 260.14 244.744 252.825 250.571C253.495 253.091 254.515 255.321 255.886 257.26C257.347 259.165 259.193 259.941 261.425 259.589L261.104 259.559C262.978 259.347 264.984 258.413 267.123 256.759C269.35 255.07 271.549 252.775 273.717 249.873C275.941 246.847 278.09 243.232 280.165 239.028C282.24 234.824 284.106 230.083 285.764 224.805C286.631 221.997 287.39 219.179 288.043 216.351C288.75 213.398 289.42 210.615 290.053 208.001C290.585 206.455 291.416 205.412 292.545 204.871C293.763 204.295 294.913 204.208 295.997 204.611C297.135 204.89 298.037 205.622 298.702 206.805C299.422 207.864 299.541 209.363 299.058 211.301L297.578 217.437C296.278 222.576 294.526 228.405 292.32 234.926C290.17 241.322 287.385 247.81 283.967 254.389C281.897 258.076 279.709 261.192 277.401 263.736C275.059 266.19 272.801 268.2 270.628 269.764C268.49 271.418 266.453 272.672 264.519 273.526C262.71 274.435 261.268 275.098 260.194 275.515C253.214 278.225 247.376 278.175 242.68 275.364C238.073 272.519 234.862 267.432 233.047 260.104C231.489 253.706 231.103 247.008 231.887 240.01C232.76 232.977 234.695 224.965 237.692 215.974C238.792 212.973 240.332 209.646 242.313 205.993C244.258 202.251 246.559 198.629 249.215 195.126C251.871 191.623 254.818 188.47 258.055 185.669C261.382 182.832 264.808 180.781 268.333 179.515C272.037 178.18 275.297 178.356 278.115 180.042C280.898 181.639 282.713 184.59 283.561 188.895C283.987 190.789 284.118 192.85 283.953 195.076C283.842 197.179 283.426 199.555 282.704 202.204L282.786 202.017ZM271.532 193.721C268.553 195.598 265.932 198.263 263.669 201.717C261.406 205.17 259.477 208.957 257.885 213.077C256.292 217.197 255.01 221.454 254.038 225.847C253.032 230.151 252.359 234.12 252.019 237.753C257.365 232.691 261.916 226.907 265.673 220.403C269.394 213.808 271.98 206.677 273.43 199.008L273.482 199.142C273.741 198.218 273.821 197.363 273.722 196.577C273.713 195.757 273.693 195.044 273.664 194.437C273.356 193.115 272.646 192.876 271.532 193.721ZM345.016 176.463C345.135 177.035 344.951 177.621 344.464 178.222C344.031 178.699 343.447 179.184 342.711 179.676C341.94 180.078 341.107 180.453 340.213 180.8C339.407 181.113 338.639 181.257 337.908 181.231C339.474 181.55 341.002 182.038 342.493 182.695C343.984 183.352 345.348 184.213 346.585 185.277C347.788 186.252 348.739 187.376 349.439 188.649C350.229 189.887 350.598 191.236 350.548 192.698C350.433 193.463 350.309 194.335 350.174 195.315C350.004 196.204 349.852 197.139 349.718 198.118C349.393 200.2 349.077 202.435 348.767 204.82C348.547 207.171 348.355 209.46 348.19 211.687C348.024 213.914 347.914 216.016 347.858 217.995C347.857 219.849 347.993 221.392 348.266 222.625C348.335 222.804 348.298 222.973 348.154 223.132C348.099 223.256 348.044 223.381 347.99 223.505L348.929 223.14C351.267 221.203 353.288 218.718 354.995 215.687C356.701 212.656 358.214 209.391 359.533 205.892C360.907 202.269 362.094 198.564 363.095 194.777C364.151 190.866 365.125 187.141 366.016 183.602C366.454 182.608 366.748 181.773 366.898 181.097C367.047 180.421 367.179 179.7 367.294 178.935C367.478 178.349 368.114 177.998 369.203 177.885C370.257 177.681 371.353 177.719 372.491 177.998C373.629 178.277 374.641 178.76 375.525 179.446C376.375 180.043 376.653 180.759 376.359 181.594L374.551 188.475L374.603 188.609C372.805 195.383 370.811 202.182 368.62 209.006C366.485 215.705 363.665 222.104 360.163 228.201C359.636 229.23 358.919 230.435 358.014 231.816C357.163 233.073 356.116 234.355 354.873 235.662C353.754 237.023 352.431 238.258 350.904 239.365C349.412 240.562 347.754 241.464 345.93 242.069C341.495 243.379 337.862 243.039 335.03 241.05C332.287 239.025 330.357 235.913 329.241 231.712C326.673 237.034 323.87 241.882 320.831 246.254C317.756 250.537 314.358 253.453 310.634 255.002C307.094 255.965 304 256.085 301.351 255.363C298.756 254.517 296.55 253.211 294.732 251.445C292.913 249.68 291.446 247.623 290.328 245.277C289.266 242.806 288.452 240.444 287.886 238.192C287.48 236.084 287.257 234.317 287.218 232.891C286.827 229.232 286.897 225.034 287.426 220.298C287.955 215.561 288.887 210.668 290.222 205.618C291.557 200.568 293.212 195.549 295.188 190.559C297.253 185.535 299.654 180.844 302.39 176.486C305.126 172.128 308.133 168.335 311.41 165.105C314.777 161.841 318.429 159.445 322.367 157.916C323.53 157.464 324.684 157.119 325.827 156.881C326.971 156.643 328.238 156.46 329.63 156.331C332.056 156.213 334.118 156.751 335.818 157.945C337.572 159.015 339.045 160.554 340.237 162.563C341.483 164.447 342.486 166.632 343.246 169.118C344.06 171.48 344.65 173.928 345.016 176.463ZM329.311 182.562C330.032 181.767 331.026 181.278 332.294 181.094C333.651 180.876 335.095 180.882 336.626 181.111C336.005 180.838 335.679 180.398 335.65 179.791C335.635 179.488 335.514 179.175 335.285 178.852C335.146 178.494 335.052 178.118 335.002 177.726C334.744 176.796 334.424 175.839 334.042 174.854C333.66 173.87 333.178 173.027 332.597 172.326C331.981 171.535 331.255 170.993 330.42 170.7C329.586 170.406 328.614 170.423 327.505 170.75C324.159 171.947 321.228 174.475 318.711 178.336C316.159 182.107 314.002 186.498 312.239 191.508C310.477 196.517 309.088 201.691 308.071 207.029C307.144 212.332 306.597 217.024 306.431 221.105C306.366 222.263 306.405 223.69 306.548 225.385C306.657 226.99 306.899 228.544 307.276 230.045C307.48 231.099 307.755 232.074 308.102 232.968C308.45 233.863 308.924 234.555 309.526 235.042C310.216 235.495 310.999 235.654 311.874 235.52C312.749 235.387 313.833 234.863 315.126 233.949C316.329 233.07 317.63 231.38 319.028 228.881C320.426 226.381 321.809 223.578 323.178 220.472C324.601 217.242 325.882 213.912 327.022 210.483C328.252 207.019 329.228 203.963 329.95 201.314C330.25 198.108 330.45 195.044 330.551 192.121C330.707 189.074 330.661 186.569 330.413 184.605L329.311 182.562ZM392.896 138.562C392.482 140.68 391.909 143.58 391.176 147.263C390.444 150.946 389.671 155.056 388.859 159.594C388.101 164.007 387.34 168.679 386.577 173.61C385.78 178.451 385.126 183.133 384.617 187.656C384.073 192.09 383.738 196.133 383.611 199.787C383.485 203.44 383.653 206.258 384.114 208.242C384.039 208.58 384.037 208.838 384.106 209.017C384.176 209.196 384.183 209.348 384.128 209.472L385.068 209.107C387.316 207.205 389.31 204.783 391.051 201.841C392.758 198.81 394.288 195.589 395.642 192.18C396.961 188.681 398.138 185.083 399.174 181.386C400.175 177.598 401.121 173.935 402.013 170.397L401.879 170.449C402.103 169.435 402.389 168.448 402.738 167.489C403.051 166.441 403.338 165.454 403.597 164.53C403.746 163.854 404.32 163.476 405.32 163.397C406.319 163.318 407.343 163.436 408.391 163.749C409.529 164.028 410.496 164.528 411.291 165.249C412.141 165.846 412.508 166.528 412.393 167.293L410.309 175.054C408.621 181.579 406.654 188.316 404.409 195.264C402.218 202.088 399.516 208.389 396.302 214.168C395.774 215.197 395.058 216.402 394.152 217.783C393.212 219.075 392.121 220.375 390.877 221.681C389.634 222.988 388.249 224.195 386.722 225.303C385.231 226.5 383.635 227.429 381.934 228.089C379.931 228.764 378.129 228.897 376.528 228.489C374.928 228.08 373.492 227.299 372.22 226.145C371.003 224.867 369.985 223.306 369.165 221.461C368.222 219.562 367.477 217.379 366.932 214.914C366.729 213.86 366.553 212.744 366.404 211.566C366.221 210.298 366.135 209.147 366.145 208.113C365.355 198.122 365.698 187.999 367.175 177.746C368.706 167.367 370.424 157.072 372.328 146.858L375.198 132.767C375.936 128.567 376.612 124.34 377.225 120.086C377.893 115.707 378.462 111.47 378.932 107.374C379.49 103.244 379.922 99.317 380.228 95.5941C380.587 91.747 380.783 88.2726 380.814 85.1709C381.968 83.899 383.641 83.3008 385.833 83.3765C388.08 83.328 390.277 83.8137 392.424 84.8338C394.66 85.8192 396.598 87.2294 398.237 89.0644C399.842 90.8099 400.624 92.8235 400.583 95.105C400.478 96.6906 400.151 99.0316 399.602 102.128C399.144 105.19 398.538 108.669 397.785 112.566C397.122 116.427 396.377 120.476 395.55 124.71C394.777 128.821 394.025 132.717 393.292 136.4L392.896 138.562ZM409.604 125.278C410.703 124.13 412.321 123.656 414.459 123.856C416.561 123.966 418.614 124.611 420.616 125.79C422.584 126.88 424.271 128.439 425.676 130.468C427.047 132.407 427.551 134.632 427.187 137.142C427.296 136.893 427.276 137.107 427.127 137.783C426.977 138.459 426.763 139.366 426.484 140.504C426.205 141.642 425.889 142.949 425.535 144.425C425.181 145.902 424.882 147.253 424.638 148.481C423.931 151.433 423.149 154.723 422.292 158.352C421.49 161.856 420.678 165.466 419.856 169.184C419.089 172.777 418.349 176.309 417.636 179.778C417.013 183.212 416.492 186.247 416.073 188.881C415.744 191.48 415.571 193.556 415.555 195.106C415.505 196.568 415.748 197.194 416.285 196.986L417.225 196.621C419.741 194.614 422.004 192.088 424.014 189.042C425.989 185.906 427.725 182.554 429.223 178.986C430.811 175.383 432.256 171.681 433.561 167.879C434.83 163.987 436.062 160.265 437.257 156.712L438.422 152.552C438.751 151.806 439.432 151.439 440.466 151.449C441.465 151.37 442.479 151.594 443.508 152.122C444.591 152.525 445.503 153.149 446.243 153.995C446.949 154.751 447.154 155.546 446.861 156.381L446.891 156.06C444.675 163.615 441.957 171.467 438.737 179.617C435.516 187.768 431.973 195.219 428.108 201.972C427.456 202.946 426.633 204.141 425.638 205.558C424.698 206.849 423.606 208.149 422.363 209.455C421.119 210.762 419.735 211.969 418.208 213.077C416.716 214.274 415.165 215.185 413.554 215.811C410.029 217.077 407.181 216.638 405.01 214.494C402.715 212.296 401.116 209.106 400.213 204.926C399.658 201.64 399.461 198.215 399.622 194.651L399.54 194.837C399.592 189.668 400.127 183.487 401.145 176.295C402.252 169.068 403.449 161.807 404.735 154.51C405.498 149.58 406.224 144.818 406.912 140.226C407.655 135.509 408.179 131.289 408.484 127.566L409.604 125.278ZM414.058 76.2788C415.062 75.6828 416.558 75.8228 418.546 76.6986C420.589 77.4503 422.601 78.5225 424.584 79.9153C426.621 81.1839 428.408 82.6014 429.943 84.168C431.533 85.6103 432.394 86.7689 432.528 87.6438C432.551 90.6213 432.319 93.3376 431.831 95.7929C431.432 98.2134 431.005 100.696 430.552 103.241C430.098 105.786 429.617 108.392 429.109 111.061C428.69 113.696 428.41 116.688 428.269 120.038C427.091 120.187 425.684 120.012 424.049 119.514C422.469 118.892 420.926 118.101 419.42 117.141C417.915 116.181 416.571 115.106 415.388 113.918C414.295 112.694 413.647 111.556 413.444 110.502C413.196 108.538 413.014 106.344 412.896 103.918C412.867 101.457 412.893 98.8725 412.974 96.1635C413.055 93.4545 413.074 90.7182 413.03 87.9544C412.987 85.1907 412.8 82.586 412.468 80.1402L414.058 76.2788ZM511.85 143.658C511.054 146.645 509.911 150.333 508.422 154.721C506.934 159.109 505.142 163.512 503.047 167.93C500.952 172.348 498.594 176.353 495.973 179.946C493.406 183.414 490.602 185.739 487.559 186.92C485.68 187.65 483.751 187.987 481.772 187.931C479.829 187.965 478.042 187.475 476.412 186.46C474.782 185.445 473.309 183.906 471.993 181.842C470.732 179.654 469.806 176.873 469.216 173.498C468.8 170.57 468.536 167.634 468.423 164.692C468.4 161.714 468.503 158.533 468.734 155.148C469.054 151.728 469.466 148.015 469.97 144.009C470.439 139.914 471.02 135.311 471.714 130.202C472.093 127.995 472.3 126.009 472.336 124.245C472.426 122.356 472.37 120.884 472.167 119.83L467.86 127.836C465.318 132.428 463.044 136.915 461.039 141.298C459.123 145.647 457.239 150.343 455.387 155.387C454.499 162.117 453.976 168.86 453.819 175.615C453.626 182.28 453.916 188.862 454.688 195.359C454.713 196.482 453.947 197.294 452.391 197.796C450.835 198.297 449.067 198.52 447.089 198.464C445.165 198.284 443.351 197.856 441.647 197.179C439.853 196.537 438.775 195.616 438.412 194.418C437.654 190.078 437.172 185.786 436.965 181.541C436.813 177.172 436.83 172.84 437.016 168.545C437.168 164.161 437.443 159.832 437.843 155.557C438.298 151.158 438.752 146.759 439.207 142.361C439.687 137.231 440.174 132.253 440.669 127.427C441.128 122.511 441.434 117.861 441.585 113.477C442.451 112.523 443.748 112.019 445.478 111.966C447.263 111.788 449.079 111.957 450.928 112.475C452.777 112.993 454.551 113.849 456.251 115.043C457.915 116.147 459.212 117.498 460.14 119.094C462.738 114.378 465.571 110.137 468.639 106.371C471.708 102.604 475.159 99.8225 478.993 98.025C480.246 97.5386 481.68 97.6511 483.295 98.3628C484.965 98.9502 486.56 99.8755 488.08 101.139C489.6 102.402 490.86 103.921 491.858 105.696C492.856 107.471 493.32 109.197 493.25 110.872C492.695 116.339 492.081 121.521 491.407 126.417C490.699 131.223 490.095 135.371 489.597 138.86C489.138 141.921 488.699 144.769 488.28 147.404C487.916 149.914 487.641 152.389 487.456 154.829C487.36 157.235 487.327 159.668 487.355 162.129C487.473 164.555 487.706 167.142 488.052 169.891C488.072 169.677 488.281 169.287 488.679 168.721L488.545 168.773C490.708 166.388 493.133 162.82 495.82 158.07C498.507 153.319 500.92 147.336 503.062 140.119C503.669 138.236 504.204 136.432 504.667 134.707C505.22 132.948 505.728 131.206 506.191 129.481L507.23 124.598C507.414 124.011 508.051 123.661 509.139 123.548C510.193 123.344 511.244 123.4 512.293 123.713C513.431 123.992 514.398 124.492 515.193 125.213C516.042 125.81 516.32 126.526 516.027 127.361L516.057 127.041L511.933 143.472L511.85 143.658ZM552.351 178.445L557.287 179.618C560.756 180.33 564.252 180.981 567.776 181.569C571.335 182.247 575.155 182.669 579.236 182.835L579.101 182.887C580.011 182.843 580.493 183.686 580.547 185.416C580.725 187.2 580.49 189.248 579.843 191.559C579.23 193.96 578.128 196.293 576.536 198.559C575.034 200.79 573.074 202.374 570.658 203.313C568.6 204.112 566.539 204.242 564.477 203.705L554.853 200.799C553.397 200.232 551.975 199.754 550.589 199.365C549.202 198.977 547.877 198.616 546.615 198.282C544.922 203.471 543.046 208.319 540.986 212.826C538.96 217.423 536.537 221.659 533.717 225.535C530.986 229.376 527.823 232.767 524.228 235.708C520.578 238.773 516.354 241.288 511.556 243.254C508.692 244.366 505.752 245.147 502.734 245.598C499.752 246.138 496.936 246.048 494.287 245.325C491.548 244.638 489.121 243.161 487.005 240.893C484.833 238.749 483.235 235.56 482.208 231.324C480.903 226.373 480.794 221.318 481.88 216.159C482.966 211 484.932 206.117 487.778 201.51C490.658 196.994 494.229 192.929 498.491 189.318C502.787 185.796 507.397 183.079 512.319 181.168C514.824 180.195 517.141 179.398 519.269 178.778C521.397 178.158 523.363 177.652 525.167 177.26C527.096 176.923 528.925 176.728 530.655 176.674C532.475 176.585 534.267 176.559 536.031 176.595L538.424 162.072L538.597 160.923C536.915 163.224 535.157 165.194 533.322 166.833C531.522 168.562 529.61 169.871 527.586 170.76C524.047 171.722 520.952 171.842 518.303 171.12C515.709 170.274 513.503 168.968 511.684 167.203C509.866 165.437 508.398 163.381 507.281 161.034C506.219 158.563 505.405 156.202 504.839 153.95C504.433 151.842 504.21 150.075 504.171 148.648C503.78 144.989 503.849 140.792 504.379 136.055C504.908 131.318 505.84 126.425 507.175 121.375C508.509 116.326 510.165 111.306 512.141 106.317C514.206 101.292 516.607 96.6014 519.343 92.2435C522.079 87.8856 525.086 84.092 528.363 80.8627C531.73 77.5987 535.382 75.2022 539.32 73.6732C540.483 73.2215 541.636 72.8766 542.78 72.6386C543.923 72.4006 545.191 72.2174 546.583 72.0888C549.008 71.9708 551.071 72.5087 552.77 73.7025C554.525 74.7721 555.998 76.3113 557.189 78.3201C558.436 80.2046 559.439 82.3897 560.198 84.8755C561.012 87.237 561.603 89.6853 561.969 92.2206C562.053 92.7028 561.897 93.2271 561.499 93.7935C561.066 94.2705 560.526 94.7375 559.88 95.1945C559.234 95.6514 558.508 96.0363 557.702 96.349C556.897 96.6618 556.146 96.8503 555.45 96.9145C557.071 97.1092 558.688 97.5624 560.303 98.274C561.973 98.8614 563.454 99.6252 564.746 100.565C566.038 101.505 567.051 102.657 567.786 104.019C568.576 105.257 568.901 106.624 568.761 108.12L552.351 178.445ZM532.078 149.706C533.137 148.986 534.284 147.562 535.518 145.436C536.752 143.309 537.971 140.879 539.175 138.146C540.469 135.378 541.71 132.475 542.9 129.439C544.055 126.313 545.038 123.408 545.849 120.724C546.423 116.897 546.89 113.06 547.25 109.213C547.61 105.366 547.574 101.827 547.143 98.5953C548.511 97.3434 550.594 96.7406 553.392 96.7867C552.95 96.4435 552.687 96.0308 552.603 95.5486C552.588 95.2454 552.466 94.9322 552.238 94.609C552.099 94.251 552.005 93.8757 551.955 93.483C551.697 92.5533 551.377 91.5963 550.995 90.6119C550.612 89.6275 550.131 88.7847 549.55 88.0836C548.934 87.2929 548.208 86.7507 547.373 86.457C546.538 86.1633 545.566 86.1802 544.458 86.5077C541.112 87.7039 538.18 90.2325 535.663 94.0935C533.111 97.8649 530.954 102.255 529.192 107.265C527.43 112.275 526.04 117.448 525.024 122.786C524.096 128.09 523.55 132.782 523.384 136.862C523.318 138.021 523.357 139.447 523.501 141.142C523.609 142.748 523.852 144.301 524.229 145.803C524.432 146.857 524.708 147.831 525.055 148.726C525.403 149.621 525.877 150.312 526.478 150.799C527.169 151.252 527.952 151.412 528.827 151.278C529.702 151.144 530.785 150.62 532.078 149.706ZM515.426 228.158C519.226 224.417 522.429 219.671 525.037 213.921C527.679 208.261 529.934 202.134 531.801 195.538C529.092 195.457 526.408 195.573 523.749 195.885C521.124 196.286 518.496 196.946 515.867 197.864C512.879 198.921 509.806 200.423 506.649 202.37C503.436 204.441 500.632 206.766 498.235 209.345C495.748 211.958 493.848 214.755 492.534 217.737C491.22 220.719 490.958 223.756 491.746 226.848C492.242 228.921 493.019 230.525 494.078 231.658C495.136 232.792 496.403 233.536 497.879 233.89C499.3 234.368 500.841 234.49 502.502 234.257C504.197 234.114 505.85 233.73 507.46 233.104C508.892 232.548 510.299 231.796 511.682 230.847C513.099 229.988 514.347 229.092 515.426 228.158Z" fill="#55BEFF"/>
</g>
<g filter="url(#filter2_d_26_180)">
<path d="M51.8298 475.656C51.9436 476.744 51.2745 477.673 49.8227 478.443C48.3361 479.123 46.611 479.587 44.6475 479.835C42.6839 480.082 40.7404 480.116 38.8168 479.936C36.9827 479.721 35.7751 479.264 35.1939 478.562C33.5773 470.951 32.9273 463.84 33.2439 457.23C33.6499 450.584 34.7193 444.453 36.4519 438.837C38.2741 433.186 40.5906 428.013 43.4015 423.317C46.3018 418.587 49.4206 414.286 52.758 410.416C56.0605 406.456 59.4473 402.978 62.9184 399.982C66.4442 396.863 69.7163 394.15 72.7347 391.845C78.0356 387.727 83.6966 384.139 89.7177 381.08C95.7935 377.897 101.785 375.159 107.691 372.865C112.881 370.85 118.231 368.979 123.739 367.252C129.302 365.401 134.542 363.778 139.459 362.384C143.894 361.074 148.266 359.736 152.576 358.372C156.887 357.007 160.966 355.577 164.814 354.083C169.646 352.207 173.972 350.218 177.79 348.117C181.574 345.927 184.871 343.411 187.681 340.57C188.293 340.023 188.884 340.617 189.455 342.352C190.025 344.088 190.494 346.223 190.86 348.758C191.192 351.204 191.372 353.657 191.401 356.117C191.395 358.488 191.121 360.037 190.578 360.762C187.142 363.847 183.353 366.554 179.211 368.883C175.159 371.178 170.896 373.194 166.421 374.931C161.41 376.877 156.249 378.572 150.94 380.016C145.63 381.459 140.214 382.893 134.691 384.317C128.72 385.914 122.767 387.557 116.831 389.244C110.86 390.841 105.011 392.752 99.2841 394.976C95.7045 396.366 92.1944 397.935 88.7538 399.683C85.3679 401.306 81.9346 403.206 78.454 405.381C73.9143 408.277 69.68 411.826 65.751 416.029C61.8767 420.108 58.6358 425.023 56.0282 430.772C53.4753 436.398 51.7422 442.941 50.8287 450.401C50.0048 457.827 50.3384 466.245 51.8298 475.656ZM100.805 395.312C101.243 394.318 102.558 393.859 104.75 393.935C106.942 394.01 109.218 394.568 111.579 395.608C113.905 396.559 116.011 398.006 117.899 399.951C119.752 401.806 120.576 404.061 120.371 406.715C117.24 414.83 114.256 423.456 111.418 432.59C108.58 441.725 106.008 451.014 103.702 460.457C101.361 469.811 99.2782 479.167 97.4542 488.526C95.6301 497.885 94.1666 506.846 93.0637 515.41C91.9608 523.974 91.2111 531.989 90.8146 539.454C90.5076 546.886 90.6111 553.385 91.1252 558.952C91.2242 559.738 90.5183 559.909 89.0074 559.466C87.4966 559.022 85.7746 558.301 83.8415 557.301C81.9979 556.266 80.2538 555.089 78.6092 553.771C76.9993 552.543 76.0827 551.508 75.8595 550.668C74.9379 544.847 74.6159 537.918 74.8934 529.88C75.1709 521.843 75.8463 513.239 76.9197 504.068C78.0826 494.863 79.5787 485.323 81.408 475.447C83.2373 465.571 85.2256 455.84 87.3729 446.252C89.5202 436.665 91.7343 427.515 94.0154 418.803C96.3859 410.055 98.6491 402.225 100.805 395.312ZM173.802 482.36C172.478 486.376 170.92 490.585 169.128 494.988C167.302 499.302 165.192 503.416 162.799 507.332C160.406 511.248 157.688 514.723 154.645 517.759C151.601 520.794 148.255 522.918 144.606 524.129C142.512 524.838 140.576 525.024 138.797 524.685C137.018 524.346 135.447 523.617 134.086 522.498C132.779 521.254 131.672 519.728 130.763 517.918C129.854 516.108 129.179 514.105 128.738 511.907C128.218 508.711 128.035 505.589 128.191 502.542C128.347 499.495 128.733 496.513 129.351 493.596C130.059 490.644 130.873 487.701 131.794 484.769C132.715 481.837 133.708 478.825 134.773 475.734L136.536 470.724L136.588 470.859L138.708 464.783C139.042 463.521 139.634 462.261 140.485 461.004C141.425 459.712 143.054 458.204 145.371 456.48C144.222 457.235 143.28 457.859 142.544 458.35C141.773 458.753 141.11 459.165 140.553 459.587C139.494 460.307 138.434 461.027 137.375 461.748C136.316 462.468 135.009 463.079 133.452 463.58L132.11 464.101C130.875 468.082 129.757 471.966 128.756 475.753C127.721 479.451 126.767 482.962 125.895 486.287L125.843 486.153C125.694 486.829 125.119 487.206 124.12 487.285C123.121 487.364 122.097 487.247 121.049 486.933C119.965 486.53 118.999 486.03 118.149 485.433C117.354 484.712 117.103 483.934 117.397 483.099L117.449 483.233C118.724 478.825 119.77 475.02 120.587 471.82C121.369 468.529 122.093 465.622 122.761 463.097C121.454 461.854 120.625 460.116 120.273 457.884C119.643 454.936 119.672 452.093 120.359 449.354C121.047 446.616 121.864 443.415 122.81 439.752C123.164 438.276 123.51 436.649 123.849 434.869C124.277 433.055 124.584 430.928 124.769 428.487C126.3 428.717 127.848 428.991 129.414 429.31C130.945 429.539 132.366 430.017 133.678 430.744C135.045 431.346 136.212 432.231 137.181 433.4C138.15 434.568 138.83 436.055 139.222 437.859C139.355 438.734 139.479 439.716 139.593 440.805C139.672 441.804 139.597 443.069 139.367 444.6L136.075 452.83C135.836 453.54 136.095 453.543 136.85 452.837C137.572 452.043 138.591 450.823 139.909 449.178C141.227 447.533 142.7 445.623 144.326 443.447C145.953 441.27 147.535 439.111 149.072 436.97C150.609 434.828 151.912 432.88 152.982 431.126C154.141 429.337 154.912 428.008 155.295 427.138C155.832 426.93 156.607 426.938 157.621 427.162C158.635 427.386 159.639 427.717 160.633 428.155C161.682 428.469 162.596 428.835 163.376 429.253C164.211 429.546 164.708 429.765 164.867 429.91C166.174 431.153 166.886 432.987 167.004 435.413C167.087 437.749 166.765 440.501 166.038 443.667C165.4 446.798 164.429 450.264 163.125 454.066C161.875 457.744 160.526 461.563 159.078 465.524C158.182 467.726 157.331 469.91 156.525 472.077C155.718 474.243 154.929 476.455 154.158 478.711C153.57 480.381 152.918 482.282 152.201 484.414C151.484 486.546 150.83 488.706 150.237 490.892C149.61 492.99 149.161 495.018 148.892 496.976C148.622 498.934 148.607 500.485 148.845 501.628C148.874 502.235 149.426 502.33 150.5 501.913C151.519 501.62 152.695 500.803 154.028 499.461C155.326 498.031 156.654 496.279 158.012 494.207C159.335 492.045 160.616 489.643 161.855 486.999C163.094 484.355 164.13 481.585 164.961 478.687L164.827 478.739C166.042 474.972 167.14 471.302 168.121 467.728C169.102 464.155 169.837 461.14 170.325 458.685C170.599 458.064 171.253 457.759 172.286 457.769C173.286 457.69 174.327 457.852 175.41 458.255C176.494 458.659 177.45 459.265 178.28 460.076C179.075 460.797 179.326 461.575 179.032 462.41L179.062 462.09L176.836 470.678L174.019 482.121L173.802 482.36ZM224.962 427.275C225.081 427.846 224.896 428.433 224.409 429.034C223.976 429.511 223.392 429.995 222.656 430.487C221.885 430.889 221.053 431.264 220.158 431.611C219.352 431.924 218.584 432.068 217.854 432.043C219.419 432.362 220.947 432.85 222.438 433.506C223.929 434.163 225.293 435.024 226.53 436.088C227.733 437.063 228.684 438.187 229.384 439.46C230.174 440.698 230.544 442.048 230.493 443.509C230.378 444.275 230.254 445.147 230.119 446.126C229.95 447.016 229.798 447.95 229.663 448.929C229.339 451.012 229.022 453.246 228.712 455.632C228.493 457.983 228.3 460.272 228.135 462.498C227.97 464.725 227.859 466.828 227.804 468.806C227.803 470.66 227.938 472.204 228.211 473.437C228.281 473.616 228.243 473.785 228.099 473.943C228.044 474.068 227.99 474.192 227.935 474.316L228.875 473.951C231.212 472.014 233.234 469.53 234.94 466.498C236.647 463.467 238.159 460.202 239.478 456.704C240.852 453.081 242.04 449.376 243.041 445.588C244.096 441.677 245.07 437.952 245.962 434.413C246.4 433.419 246.693 432.584 246.843 431.908C246.992 431.233 247.124 430.512 247.239 429.746C247.423 429.16 248.06 428.81 249.148 428.696C250.202 428.493 251.298 428.531 252.436 428.81C253.575 429.089 254.586 429.571 255.47 430.258C256.32 430.855 256.598 431.571 256.304 432.405L254.496 439.286L254.548 439.421C252.751 446.195 250.756 452.994 248.566 459.817C246.43 466.517 243.611 472.915 240.108 479.012C239.581 480.041 238.864 481.246 237.959 482.627C237.108 483.885 236.061 485.166 234.818 486.473C233.699 487.834 232.376 489.069 230.85 490.177C229.358 491.374 227.7 492.275 225.875 492.881C221.44 494.191 217.807 493.851 214.975 491.861C212.232 489.837 210.302 486.724 209.186 482.523C206.619 487.845 203.815 492.693 200.776 497.066C197.702 501.349 194.303 504.265 190.579 505.814C187.039 506.776 183.945 506.896 181.296 506.174C178.702 505.328 176.495 504.022 174.677 502.257C172.859 500.491 171.391 498.435 170.274 496.088C169.211 493.617 168.397 491.256 167.832 489.004C167.425 486.896 167.202 485.129 167.163 483.702C166.773 480.043 166.842 475.846 167.371 471.109C167.9 466.372 168.832 461.479 170.167 456.429C171.502 451.38 173.157 446.36 175.133 441.371C177.199 436.346 179.599 431.655 182.335 427.297C185.072 422.94 188.078 419.146 191.356 415.917C194.722 412.653 198.375 410.256 202.312 408.727C203.476 408.275 204.629 407.931 205.772 407.693C206.916 407.455 208.183 407.271 209.575 407.143C212.001 407.025 214.064 407.563 215.763 408.756C217.517 409.826 218.99 411.365 220.182 413.374C221.429 415.259 222.432 417.444 223.191 419.929C224.005 422.291 224.595 424.739 224.962 427.275ZM209.256 433.373C209.977 432.578 210.972 432.089 212.239 431.906C213.596 431.688 215.04 431.693 216.571 431.923C215.95 431.649 215.625 431.209 215.595 430.603C215.58 430.299 215.459 429.986 215.23 429.663C215.091 429.305 214.997 428.93 214.948 428.537C214.69 427.607 214.369 426.65 213.987 425.666C213.605 424.681 213.123 423.839 212.542 423.138C211.926 422.347 211.201 421.805 210.366 421.511C209.531 421.217 208.559 421.234 207.45 421.562C204.104 422.758 201.173 425.287 198.656 429.147C196.104 432.919 193.947 437.309 192.185 442.319C190.422 447.329 189.033 452.502 188.016 457.84C187.089 463.144 186.542 467.836 186.376 471.916C186.311 473.075 186.35 474.501 186.493 476.196C186.602 477.802 186.845 479.355 187.222 480.857C187.425 481.911 187.7 482.885 188.048 483.78C188.395 484.675 188.87 485.366 189.471 485.853C190.161 486.306 190.944 486.466 191.819 486.332C192.694 486.198 193.778 485.674 195.071 484.76C196.274 483.881 197.575 482.192 198.973 479.692C200.371 477.193 201.754 474.39 203.123 471.284C204.546 468.054 205.828 464.724 206.968 461.295C208.197 457.831 209.173 454.774 209.895 452.125C210.195 448.919 210.395 445.855 210.496 442.932C210.652 439.885 210.606 437.38 210.359 435.417L209.256 433.373ZM250.949 391.077C252.048 389.93 253.649 389.411 255.752 389.522C257.944 389.597 260.086 390.207 262.178 391.352C264.359 392.461 266.18 393.968 267.641 395.873C269.191 397.742 269.918 399.88 269.822 402.286C269.667 403.479 269.381 405.392 268.962 408.027C268.632 410.626 268.201 413.626 267.667 417.025C266.999 421.404 266.291 426.211 265.542 431.444C264.759 436.589 263.979 441.474 263.201 446.102C262.478 450.605 261.815 454.467 261.212 457.687C260.663 460.784 260.307 462.518 260.143 462.891C261.56 462.032 263.341 459.59 265.485 455.565C267.684 451.415 269.998 446.5 272.427 440.82C274.821 435.05 277.21 428.871 279.594 422.281C281.944 415.601 284.05 409.222 285.912 403.144C287.774 397.066 289.228 391.661 290.274 386.93C291.375 382.074 291.785 378.619 291.503 376.566C291.652 375.89 292.355 375.978 293.612 376.828C294.959 377.644 296.338 378.808 297.749 380.32C299.125 381.742 300.339 383.279 301.392 384.93C302.535 386.546 302.959 387.771 302.665 388.606C301.431 392.587 299.892 397.51 298.05 403.374C296.263 409.114 294.177 415.279 291.792 421.869C289.463 428.335 286.91 434.888 284.132 441.527C281.321 448.077 278.38 454.162 275.31 459.782C272.33 465.368 269.144 470.158 265.752 474.153C262.484 478.202 259.132 480.842 255.697 482.073C253.102 483.081 250.626 482.806 248.271 481.249C245.916 479.692 244.297 476.717 243.414 472.322C243.072 470.91 242.857 469.295 242.768 467.475C242.59 465.691 242.646 463.712 242.935 461.54C243.091 458.493 243.431 454.86 243.955 450.64C244.534 446.296 245.15 441.783 245.803 437.101C246.342 433.184 246.846 429.178 247.316 425.083C247.785 420.987 248.217 417.06 248.611 413.303C248.971 409.455 249.284 405.884 249.549 402.589C249.869 399.169 250.042 396.167 250.068 393.582L250.949 391.077ZM347.698 381.006C345.456 391.145 341.709 400.324 336.455 408.543C331.292 416.727 325.052 423.733 317.737 429.56C318.407 432.08 319.427 434.31 320.798 436.249C322.259 438.154 324.105 438.93 326.337 438.578L326.016 438.548C327.89 438.336 329.897 437.402 332.035 435.748C334.263 434.059 336.461 431.764 338.63 428.862C340.853 425.836 343.002 422.221 345.077 418.017C347.152 413.813 349.019 409.072 350.676 403.793C351.543 400.985 352.302 398.167 352.955 395.339C353.662 392.387 354.332 389.604 354.965 386.99C355.497 385.444 356.328 384.401 357.457 383.86C358.675 383.284 359.826 383.197 360.909 383.6C362.047 383.879 362.949 384.61 363.614 385.794C364.335 386.853 364.453 388.352 363.97 390.29L362.491 396.426C361.191 401.565 359.438 407.394 357.233 413.915C355.082 420.311 352.298 426.799 348.879 433.378C346.81 437.065 344.621 440.181 342.313 442.725C339.971 445.179 337.713 447.188 335.54 448.753C333.402 450.407 331.366 451.661 329.432 452.515C327.622 453.424 326.18 454.087 325.106 454.504C318.126 457.214 312.288 457.164 307.592 454.353C302.986 451.508 299.775 446.421 297.959 439.093C296.402 432.695 296.015 425.997 296.799 418.999C297.672 411.965 299.607 403.954 302.604 394.963C303.704 391.962 305.245 388.634 307.225 384.982C309.17 381.24 311.471 377.618 314.127 374.115C316.783 370.612 319.73 367.459 322.967 364.657C326.294 361.821 329.72 359.77 333.245 358.504C336.949 357.169 340.21 357.344 343.027 359.031C345.81 360.628 347.625 363.579 348.473 367.884C348.899 369.778 349.03 371.839 348.865 374.065C348.755 376.168 348.338 378.544 347.616 381.193L347.698 381.006ZM336.444 372.709C333.465 374.587 330.845 377.252 328.581 380.706C326.318 384.159 324.39 387.946 322.797 392.066C321.204 396.186 319.922 400.442 318.95 404.836C317.944 409.14 317.271 413.109 316.931 416.742C322.277 411.68 326.828 405.896 330.585 399.392C334.306 392.797 336.892 385.666 338.342 377.997L338.395 378.131C338.654 377.207 338.734 376.352 338.634 375.566C338.625 374.746 338.605 374.033 338.576 373.426C338.268 372.104 337.558 371.865 336.444 372.709ZM380.727 347.481C380.314 349.599 379.741 352.499 379.008 356.182C378.275 359.865 377.503 363.975 376.69 368.513C375.933 372.926 375.172 377.599 374.409 382.529C373.611 387.37 372.958 392.052 372.448 396.575C371.904 401.009 371.569 405.052 371.443 408.706C371.317 412.359 371.484 415.178 371.946 417.161C371.871 417.499 371.868 417.758 371.938 417.937C372.007 418.116 372.015 418.267 371.96 418.391L372.9 418.026C375.147 416.124 377.142 413.702 378.883 410.76C380.59 407.729 382.12 404.508 383.474 401.099C384.793 397.601 385.97 394.002 387.006 390.305C388.007 386.518 388.953 382.855 389.845 379.316L389.71 379.368C389.935 378.354 390.221 377.368 390.569 376.408C390.883 375.36 391.169 374.373 391.428 373.449C391.578 372.773 392.152 372.395 393.151 372.316C394.15 372.237 395.174 372.355 396.223 372.668C397.361 372.947 398.328 373.447 399.123 374.169C399.972 374.766 400.34 375.447 400.225 376.212L398.141 383.973C396.453 390.498 394.486 397.235 392.24 404.183C390.05 411.007 387.347 417.308 384.133 423.087C383.606 424.116 382.89 425.321 381.984 426.703C381.044 427.994 379.952 429.294 378.709 430.6C377.466 431.907 376.081 433.114 374.554 434.222C373.062 435.419 371.466 436.348 369.766 437.008C367.762 437.683 365.96 437.816 364.36 437.408C362.76 436.999 361.324 436.218 360.052 435.064C358.834 433.786 357.816 432.225 356.997 430.38C356.054 428.481 355.309 426.299 354.764 423.833C354.56 422.779 354.384 421.663 354.236 420.485C354.053 419.217 353.966 418.067 353.977 417.033C353.187 407.041 353.53 396.918 355.006 386.665C356.538 376.287 358.255 365.991 360.159 355.777L363.03 341.687C363.768 337.487 364.443 333.259 365.057 329.005C365.725 324.626 366.294 320.389 366.763 316.293C367.322 312.163 367.754 308.236 368.059 304.513C368.419 300.666 368.615 297.192 368.646 294.09C369.8 292.818 371.473 292.22 373.665 292.296C375.912 292.247 378.109 292.733 380.255 293.753C382.492 294.738 384.43 296.149 386.069 297.984C387.674 299.729 388.455 301.743 388.414 304.024C388.309 305.61 387.982 307.951 387.434 311.047C386.975 314.109 386.37 317.588 385.617 321.485C384.954 325.347 384.209 329.395 383.381 333.63C382.609 337.74 381.856 341.637 381.124 345.319L380.727 347.481ZM416.777 333.483C416.363 335.601 415.79 338.501 415.058 342.184C414.325 345.867 413.552 349.977 412.74 354.515C411.982 358.928 411.222 363.601 410.459 368.531C409.661 373.372 409.007 378.054 408.498 382.577C407.954 387.011 407.619 391.054 407.493 394.708C407.366 398.361 407.534 401.18 407.995 403.163C407.921 403.501 407.918 403.76 407.987 403.939C408.057 404.118 408.064 404.269 408.01 404.393L408.949 404.028C411.197 402.126 413.191 399.704 414.933 396.762C416.639 393.731 418.169 390.51 419.523 387.101C420.842 383.603 422.02 380.004 423.055 376.307C424.056 372.52 425.003 368.857 425.894 365.318L425.76 365.37C425.984 364.356 426.271 363.37 426.619 362.41C426.933 361.362 427.219 360.375 427.478 359.451C427.627 358.775 428.202 358.397 429.201 358.318C430.2 358.239 431.224 358.357 432.273 358.67C433.411 358.949 434.377 359.449 435.172 360.171C436.022 360.768 436.389 361.449 436.275 362.214L434.19 369.975C432.502 376.5 430.535 383.237 428.29 390.185C426.099 397.009 423.397 403.31 420.183 409.089C419.655 410.118 418.939 411.323 418.034 412.705C417.094 413.996 416.002 415.296 414.758 416.602C413.515 417.909 412.13 419.116 410.604 420.224C409.112 421.421 407.516 422.35 405.815 423.01C403.812 423.685 402.01 423.818 400.41 423.41C398.809 423.001 397.373 422.22 396.101 421.066C394.884 419.788 393.866 418.227 393.047 416.382C392.103 414.483 391.359 412.301 390.813 409.835C390.61 408.781 390.434 407.665 390.286 406.487C390.102 405.219 390.016 404.068 390.026 403.035C389.236 393.043 389.579 382.92 391.056 372.667C392.587 362.289 394.305 351.993 396.209 341.779L399.079 327.689C399.817 323.489 400.493 319.261 401.106 315.007C401.775 310.628 402.343 306.391 402.813 302.295C403.372 298.165 403.804 294.238 404.109 290.515C404.469 286.668 404.664 283.194 404.696 280.092C405.85 278.82 407.522 278.222 409.715 278.298C411.961 278.249 414.158 278.735 416.305 279.755C418.541 280.74 420.479 282.151 422.118 283.986C423.723 285.731 424.505 287.745 424.464 290.026C424.359 291.612 424.032 293.953 423.484 297.049C423.025 300.111 422.419 303.59 421.666 307.487C421.003 311.349 420.258 315.397 419.431 319.632C418.658 323.742 417.906 327.639 417.173 331.321L416.777 333.483ZM433.485 320.199C434.584 319.051 436.202 318.577 438.34 318.777C440.442 318.888 442.495 319.532 444.497 320.711C446.465 321.801 448.152 323.36 449.558 325.389C450.929 327.328 451.432 329.553 451.068 332.063C451.177 331.814 451.157 332.028 451.008 332.704C450.858 333.38 450.644 334.287 450.365 335.425C450.086 336.563 449.77 337.87 449.416 339.347C449.063 340.823 448.764 342.175 448.52 343.402C447.812 346.354 447.03 349.645 446.173 353.273C445.371 356.777 444.559 360.388 443.737 364.105C442.97 367.699 442.23 371.23 441.517 374.699C440.894 378.134 440.373 381.168 439.954 383.802C439.625 386.402 439.452 388.477 439.437 390.028C439.386 391.489 439.629 392.115 440.166 391.907L441.106 391.542C443.622 389.535 445.885 387.009 447.895 383.963C449.87 380.827 451.606 377.475 453.104 373.907C454.692 370.304 456.138 366.602 457.442 362.8C458.711 358.909 459.944 355.186 461.138 351.633L462.304 347.473C462.632 346.727 463.313 346.36 464.347 346.37C465.346 346.291 466.36 346.516 467.389 347.043C468.472 347.446 469.384 348.07 470.124 348.916C470.83 349.672 471.036 350.467 470.742 351.302L470.772 350.981C468.556 358.536 465.838 366.388 462.618 374.538C459.398 382.689 455.855 390.14 451.989 396.894C451.337 397.868 450.514 399.063 449.519 400.479C448.579 401.771 447.487 403.07 446.244 404.377C445.001 405.683 443.616 406.89 442.089 407.998C440.597 409.195 439.046 410.107 437.435 410.732C433.91 411.998 431.062 411.559 428.891 409.415C426.596 407.217 424.997 404.028 424.094 399.847C423.539 396.561 423.342 393.136 423.503 389.572L423.421 389.758C423.473 384.589 424.009 378.408 425.026 371.216C426.133 363.989 427.33 356.728 428.616 349.431C429.379 344.501 430.105 339.739 430.793 335.147C431.536 330.43 432.06 326.21 432.366 322.487L433.485 320.199ZM437.939 271.2C438.944 270.604 440.44 270.744 442.427 271.62C444.47 272.371 446.483 273.444 448.465 274.836C450.503 276.105 452.289 277.523 453.824 279.089C455.414 280.531 456.276 281.69 456.409 282.565C456.433 285.542 456.2 288.259 455.712 290.714C455.313 293.135 454.887 295.617 454.433 298.162C453.979 300.707 453.498 303.314 452.99 305.983C452.571 308.617 452.291 311.609 452.15 314.959C450.972 315.108 449.566 314.933 447.93 314.435C446.35 313.813 444.807 313.022 443.301 312.062C441.796 311.102 440.452 310.027 439.269 308.839C438.176 307.615 437.528 306.477 437.325 305.423C437.078 303.459 436.895 301.265 436.777 298.839C436.748 296.378 436.774 293.794 436.855 291.085C436.936 288.376 436.955 285.639 436.912 282.876C436.868 280.112 436.681 277.507 436.349 275.061L437.939 271.2ZM535.732 338.579C534.935 341.566 533.792 345.254 532.304 349.642C530.815 354.03 529.024 358.434 526.929 362.851C524.834 367.269 522.475 371.274 519.854 374.867C517.287 378.335 514.483 380.66 511.44 381.841C509.561 382.571 507.632 382.908 505.654 382.853C503.71 382.886 501.923 382.396 500.294 381.381C498.664 380.366 497.191 378.827 495.875 376.763C494.613 374.576 493.687 371.794 493.098 368.419C492.682 365.491 492.417 362.555 492.304 359.613C492.281 356.635 492.385 353.454 492.615 350.069C492.935 346.649 493.347 342.937 493.851 338.93C494.32 334.835 494.902 330.232 495.595 325.123C495.974 322.916 496.181 320.93 496.217 319.166C496.308 317.277 496.251 315.806 496.048 314.752L491.742 322.757C489.199 327.349 486.925 331.836 484.92 336.219C483.004 340.568 481.12 345.264 479.269 350.308C478.38 357.038 477.857 363.781 477.7 370.536C477.508 377.201 477.797 383.783 478.57 390.28C478.594 391.403 477.828 392.216 476.272 392.717C474.716 393.218 472.949 393.441 470.97 393.385C469.047 393.205 467.233 392.777 465.528 392.1C463.734 391.458 462.656 390.538 462.294 389.339C461.535 385 461.053 380.707 460.846 376.462C460.694 372.093 460.711 367.761 460.898 363.466C461.049 359.082 461.325 354.753 461.724 350.478C462.179 346.079 462.634 341.681 463.088 337.282C463.568 332.152 464.055 327.174 464.55 322.348C465.01 317.432 465.315 312.782 465.467 308.398C466.332 307.444 467.63 306.941 469.359 306.887C471.144 306.709 472.961 306.879 474.809 307.397C476.658 307.914 478.432 308.77 480.132 309.964C481.796 311.069 483.093 312.419 484.022 314.015C486.619 309.299 489.452 305.058 492.521 301.292C495.59 297.525 499.041 294.744 502.874 292.946C504.127 292.46 505.561 292.572 507.176 293.284C508.846 293.871 510.441 294.797 511.961 296.06C513.482 297.323 514.741 298.843 515.739 300.618C516.737 302.393 517.201 304.118 517.131 305.793C516.576 311.26 515.962 316.442 515.289 321.338C514.58 326.144 513.977 330.292 513.478 333.781C513.019 336.843 512.58 339.691 512.161 342.325C511.797 344.835 511.522 347.31 511.337 349.751C511.242 352.156 511.208 354.59 511.237 357.05C511.355 359.476 511.587 362.063 511.933 364.812C511.953 364.598 512.162 364.208 512.56 363.642L512.426 363.694C514.59 361.309 517.015 357.741 519.701 352.991C522.388 348.24 524.802 342.257 526.943 335.04C527.55 333.157 528.085 331.353 528.549 329.628C529.101 327.869 529.609 326.127 530.072 324.402L531.111 319.519C531.295 318.933 531.932 318.583 533.021 318.469C534.074 318.266 535.126 318.321 536.174 318.634C537.313 318.913 538.279 319.413 539.074 320.135C539.924 320.731 540.202 321.447 539.908 322.282L539.938 321.962L535.814 338.393L535.732 338.579ZM576.233 373.366L581.168 374.539C584.637 375.252 588.134 375.902 591.658 376.49C595.216 377.168 599.036 377.59 603.117 377.756L602.983 377.808C603.892 377.764 604.374 378.607 604.428 380.337C604.606 382.121 604.371 384.169 603.724 386.48C603.111 388.881 602.009 391.214 600.417 393.48C598.915 395.711 596.956 397.295 594.539 398.234C592.481 399.033 590.421 399.164 588.358 398.626L578.734 395.72C577.278 395.153 575.856 394.675 574.47 394.287C573.083 393.898 571.759 393.537 570.496 393.203C568.804 398.392 566.927 403.24 564.867 407.747C562.842 412.344 560.419 416.58 557.598 420.456C554.867 424.297 551.704 427.688 548.109 430.629C544.459 433.694 540.235 436.209 535.437 438.175C532.574 439.287 529.633 440.069 526.616 440.519C523.633 441.06 520.817 440.969 518.168 440.247C515.43 439.559 513.002 438.082 510.886 435.814C508.715 433.671 507.116 430.481 506.089 426.245C504.784 421.294 504.675 416.239 505.761 411.08C506.847 405.921 508.813 401.038 511.659 396.432C514.539 391.915 518.11 387.851 522.372 384.239C526.669 380.717 531.278 378 536.2 376.089C538.706 375.116 541.022 374.32 543.15 373.699C545.278 373.079 547.244 372.573 549.049 372.181C550.977 371.844 552.807 371.649 554.536 371.595C556.356 371.507 558.148 371.48 559.912 371.516L562.306 356.993L562.478 355.845C560.797 358.145 559.038 360.115 557.203 361.755C555.403 363.483 553.491 364.792 551.468 365.681C547.928 366.643 544.834 366.764 542.185 366.042C539.59 365.195 537.384 363.889 535.566 362.124C533.747 360.358 532.28 358.302 531.162 355.955C530.1 353.484 529.286 351.123 528.72 348.871C528.314 346.763 528.091 344.996 528.052 343.569C527.661 339.911 527.731 335.713 528.26 330.976C528.789 326.239 529.721 321.346 531.056 316.297C532.391 311.247 534.046 306.228 536.022 301.238C538.087 296.214 540.488 291.523 543.224 287.165C545.96 282.807 548.967 279.013 552.244 275.784C555.611 272.52 559.263 270.123 563.201 268.594C564.364 268.143 565.518 267.798 566.661 267.56C567.804 267.322 569.072 267.139 570.464 267.01C572.89 266.892 574.952 267.43 576.652 268.624C578.406 269.693 579.879 271.232 581.071 273.241C582.317 275.126 583.32 277.311 584.08 279.797C584.894 282.158 585.484 284.606 585.85 287.142C585.935 287.624 585.778 288.148 585.38 288.715C584.947 289.192 584.408 289.659 583.761 290.116C583.115 290.573 582.389 290.957 581.583 291.27C580.778 291.583 580.027 291.771 579.331 291.836C580.952 292.03 582.569 292.484 584.185 293.195C585.854 293.783 587.335 294.546 588.627 295.486C589.919 296.427 590.933 297.578 591.668 298.94C592.457 300.178 592.782 301.545 592.642 303.041L576.233 373.366ZM555.959 344.627C557.019 343.907 558.165 342.484 559.399 340.357C560.633 338.23 561.852 335.8 563.056 333.067C564.35 330.299 565.592 327.396 566.781 324.36C567.936 321.234 568.919 318.329 569.731 315.645C570.304 311.818 570.771 307.981 571.131 304.134C571.491 300.287 571.455 296.748 571.025 293.517C572.392 292.265 574.475 291.662 577.274 291.708C576.831 291.365 576.568 290.952 576.484 290.47C576.469 290.167 576.348 289.853 576.119 289.53C575.98 289.172 575.886 288.797 575.836 288.404C575.578 287.474 575.258 286.517 574.876 285.533C574.494 284.549 574.012 283.706 573.431 283.005C572.815 282.214 572.089 281.672 571.254 281.378C570.419 281.084 569.448 281.101 568.339 281.429C564.993 282.625 562.062 285.154 559.545 289.015C556.993 292.786 554.836 297.177 553.073 302.186C551.311 307.196 549.922 312.369 548.905 317.707C547.978 323.011 547.431 327.703 547.265 331.784C547.2 332.942 547.239 334.368 547.382 336.063C547.491 337.669 547.733 339.223 548.11 340.724C548.314 341.778 548.589 342.752 548.936 343.647C549.284 344.542 549.758 345.233 550.359 345.721C551.05 346.173 551.833 346.333 552.708 346.199C553.583 346.065 554.667 345.541 555.959 344.627ZM539.307 423.079C543.107 419.338 546.31 414.592 548.918 408.843C551.56 403.182 553.815 397.055 555.683 390.46C552.974 390.379 550.289 390.494 547.63 390.806C545.005 391.207 542.378 391.867 539.748 392.785C536.76 393.842 533.687 395.344 530.53 397.291C527.318 399.362 524.513 401.687 522.116 404.266C519.629 406.879 517.729 409.677 516.415 412.658C515.101 415.64 514.839 418.677 515.628 421.769C516.124 423.842 516.901 425.446 517.959 426.58C519.017 427.713 520.284 428.457 521.76 428.811C523.182 429.289 524.722 429.411 526.383 429.179C528.078 429.035 529.731 428.651 531.342 428.025C532.774 427.469 534.181 426.717 535.563 425.768C536.98 424.909 538.228 424.013 539.307 423.079Z" fill="#55BEFF"/>
</g>
<defs>
<filter id="filter0_d_26_180" x="81.0691" y="136" width="467.862" height="419" filterUnits="userSpaceOnUse" color-interpolation-filters="sRGB">
<feFlood flood-opacity="0" result="BackgroundImageFix"/>
<feColorMatrix in="SourceAlpha" type="matrix" values="0 0 0 0 0 0 0 0 0 0 0 0 0 0 0 0 0 0 127 0" result="hardAlpha"/>
<feOffset dy="4"/>
<feGaussianBlur stdDeviation="4"/>
<feComposite in2="hardAlpha" operator="out"/>
<feColorMatrix type="matrix" values="0 0 0 0 1 0 0 0 0 0.439216 0 0 0 0 0.776471 0 0 0 1 0"/>
<feBlend mode="normal" in2="BackgroundImageFix" result="effect1_dropShadow_26_180"/>
<feBlend mode="normal" in="SourceGraphic" in2="effect1_dropShadow_26_180" result="shape"/>
</filter>
<filter id="filter1_d_26_180" x="9.448" y="0.394043" width="606.355" height="416.342" filterUnits="userSpaceOnUse" color-interpolation-filters="sRGB">
<feFlood flood-opacity="0" result="BackgroundImageFix"/>
<feColorMatrix in="SourceAlpha" type="matrix" values="0 0 0 0 0 0 0 0 0 0 0 0 0 0 0 0 0 0 127 0" result="hardAlpha"/>
<feOffset dy="4"/>
<feGaussianBlur stdDeviation="4"/>
<feComposite in2="hardAlpha" operator="out"/>
<feColorMatrix type="matrix" values="0 0 0 0 0.333333 0 0 0 0 0.745098 0 0 0 0 1 0 0 0 1 0"/>
<feBlend mode="normal" in2="BackgroundImageFix" result="effect1_dropShadow_26_180"/>
<feBlend mode="normal" in="SourceGraphic" in2="effect1_dropShadow_26_180" result="shape"/>
</filter>
<filter id="filter2_d_26_180" x="0.45459" y="194.241" width="639.229" height="430.02" filterUnits="userSpaceOnUse" color-interpolation-filters="sRGB">
<feFlood flood-opacity="0" result="BackgroundImageFix"/>
<feColorMatrix in="SourceAlpha" type="matrix" values="0 0 0 0 0 0 0 0 0 0 0 0 0 0 0 0 0 0 127 0" result="hardAlpha"/>
<feOffset dy="4"/>
<feGaussianBlur stdDeviation="4"/>
<feComposite in2="hardAlpha" operator="out"/>
<feColorMatrix type="matrix" values="0 0 0 0 0.333333 0 0 0 0 0.745098 0 0 0 0 1 0 0 0 1 0"/>
<feBlend mode="normal" in2="BackgroundImageFix" result="effect1_dropShadow_26_180"/>
<feBlend mode="normal" in="SourceGraphic" in2="effect1_dropShadow_26_180" result="shape"/>
</filter>
</defs>
</svg>
